<?xml version="1.0"?>
<svg width="640" height="480" xmlns="http://www.w3.org/2000/svg" xmlns:svg="http://www.w3.org/2000/svg" preserveAspectRatio="none" version="1.1">
 <!-- Created with SVG-edit - https://github.com/SVG-Edit/svgedit-->

 <g class="layer">
  <title>Layer 1</title>
  <text fill="#020284" font-family="Times" font-size="34" id="svg_3" letter-spacing="0" stroke="#d800f4" stroke-dasharray="null" stroke-linecap="null" stroke-linejoin="null" stroke-opacity="null" stroke-width="0" text-anchor="middle" transform="matrix(18.8474, 0, 0, 12.5764, -1914.57, -1412.28)" x="118.32" xml:space="preserve" y="143.94">T</text>
  <text fill="#020284" font-family="Times" font-size="34" id="svg_1" stroke="#d800f4" stroke-dasharray="null" stroke-linecap="null" stroke-linejoin="null" stroke-opacity="null" stroke-width="0" text-anchor="middle" transform="matrix(1, 0, 0, 1, 0, 0) matrix(20.9627, 0, 0, 8.14718, -3560.6, -989.045)" x="185.22" xml:space="preserve" y="163.77">S</text>
  <text fill="#020284" font-family="Times" font-size="20" id="svg_4" stroke="#ff00e6" stroke-dasharray="null" stroke-linecap="null" stroke-linejoin="null" stroke-opacity="null" stroke-width="0" text-anchor="middle" transform="matrix(3.76405, 0, 0, 3.908, -874.877, -920.769)" x="315.42" xml:space="preserve" y="351.55">SherzadTech</text>
  <path d="m196.34,259.82l0,1.96l-0.21,0l0,-1.96l0.21,0z" fill="#ffffff" id="svg_6" stroke="#ff00e6" stroke-dasharray="null" stroke-linecap="null" stroke-linejoin="null" stroke-opacity="null" stroke-width="0"/>
  <rect fill="#ffffff" height="215" id="svg_15" stroke="#ff00e6" stroke-dasharray="null" stroke-linecap="null" stroke-linejoin="null" stroke-opacity="null" stroke-width="0" width="13" x="345.4" y="144.2"/>
  <rect fill="#ffffff" height="215" id="svg_16" stroke="#ff00e6" stroke-dasharray="null" stroke-linecap="null" stroke-linejoin="null" stroke-opacity="null" stroke-width="0" width="13" x="272.7" y="145.8"/>
  <rect fill="#ffffff" height="215" id="svg_17" stroke="#ff00e6" stroke-dasharray="null" stroke-linecap="null" stroke-linejoin="null" stroke-opacity="null" stroke-width="0" transform="matrix(1, 0, 0, 1, 0, 0)" width="39" x="452.7" y="190.8"/>
  <rect fill="#ffffff" height="95" id="svg_18" stroke="#ff00e6" stroke-dasharray="null" stroke-linecap="null" stroke-linejoin="null" stroke-opacity="null" stroke-width="0" width="17" x="154.7" y="168.8"/>
 </g>
</svg>