<?xml version="1.0"?>
<svg width="640" height="480" xmlns="http://www.w3.org/2000/svg" xmlns:svg="http://www.w3.org/2000/svg" preserveAspectRatio="none" version="1.1">
 <!-- Created with SVG-edit - https://github.com/SVG-Edit/svgedit-->

 <g class="layer">
  <title>Layer 1</title>
  <text fill="#ffffff" font-family="Courier" font-size="26" font-weight="normal" id="svg_8" stroke="#020284" stroke-dasharray="null" stroke-linecap="round" stroke-linejoin="bevel" stroke-width="2" text-anchor="middle" transform="matrix(1, 0, 0, 1, 0, 0) matrix(3.41283, 0, 0, 4.50189, -701.705, -314.009)" x="306.96" xml:space="preserve" y="149.51">SherzadTech</text>
  <path d="m482.2,107.6c-536.88,196.94 227.73,186 -88.29,80.37c-316.02,-105.63 -173.79,-86.34 -41.98,34.81c131.8,121.15 -78.37,62.86 -78.88,62.66" fill="#0080d6" id="svg_19" stroke="#d800f4" stroke-dasharray="null" stroke-linecap="null" stroke-linejoin="null" stroke-width="6"/>
  <path d="m320.13,88.98l-18.87,21.05l20.94,18.97l-10.78,12.03l-32.91,-29.81l29.66,-33.09" fill="#ffffff" id="svg_23" stroke="#d800f4" stroke-dasharray="null" stroke-linecap="null" stroke-linejoin="null" stroke-width="4" transform="matrix(1, 0, 0, 1, 0, 0)"/>
  <path d="m369.47,80.66l-25.28,64.99l-9.28,-2.44l25.28,-64.99l9.28,2.44z" fill="#ffffff" id="svg_25" stroke="#d800f4" stroke-dasharray="null" stroke-linecap="null" stroke-linejoin="null" stroke-width="null" transform="matrix(1, 0, 0, 1, 0, 0)"/>
  <path d="m342.86,253.67c-2,0 -3.63,-0.09 -3.63,-0.21l0,-7.33c0,-0.12 -1.62,-0.21 -3.63,-0.21l0,0c2,0 3.63,-0.09 3.63,-0.21l0,-7.33l0,0c0,-0.12 1.62,-0.21 3.63,-0.21" fill="#ffffff" id="svg_27" stroke="#020284" stroke-dasharray="null" stroke-linecap="null" stroke-linejoin="null" stroke-width="null"/>
  <path d="m353.16,238.31c1.99,0 3.59,0.09 3.59,0.21l0,7.26c0,0.12 1.61,0.21 3.59,0.21l0,0c-1.99,0 -3.59,0.09 -3.59,0.21l0,7.26l0,0c0,0.12 -1.61,0.21 -3.59,0.21" fill="#ffffff" id="svg_32" stroke="#020284" stroke-dasharray="null" stroke-linecap="null" stroke-linejoin="null" stroke-width="null" transform="rotate(0.13816800713539124 356.75,245.98999786376953)"/>
  <path d="m370.45,128.56l21.92,-17.85l-17.73,-22l12.52,-10.2l27.86,34.57l-34.45,28.07" fill="#ffffff" id="svg_1" stroke="#d800f4" stroke-dasharray="null" stroke-linecap="null" stroke-linejoin="null" stroke-width="4"/>
  <path d="m62.1,383.98l0,-15l573,0l0,15l-573,0z" fill="#d200d6" id="svg_2" stroke="#ff00e6" stroke-dasharray="null" stroke-linecap="null" stroke-linejoin="null" stroke-width="null" transform="matrix(1, 0, 0, 1, 0, 0)"/>
 </g>
</svg>