<?xml version="1.0"?>
<svg width="1281.181" height="186.502" xmlns="http://www.w3.org/2000/svg" xmlns:svg="http://www.w3.org/2000/svg" preserveAspectRatio="none" version="1.1">
 <!-- Created with SVG-edit - https://github.com/SVG-Edit/svgedit-->

 <g class="layer">
  <title>Layer 1</title>
  <ellipse cx="161.82" cy="68.15" fill="#020284" fill-opacity="null" id="svg_9" rx="1" ry="0" stroke="#fc0000" stroke-dasharray="null" stroke-linecap="null" stroke-linejoin="bevel" stroke-opacity="null" stroke-width="0">020284</ellipse>
  <path d="m470.46,19.62l1.09,-3.4l2.86,-2.1l3.54,0l2.86,2.1l1.09,3.4l-1.09,3.4l-2.86,2.1l-3.54,0l-2.86,-2.1l-1.09,-3.4z" fill="#ffffff" id="svg_10" stroke="#fc0000" stroke-dasharray="null" stroke-linecap="null" stroke-linejoin="bevel" stroke-opacity="null" stroke-width="0"/>
  <path d="m821.09,45.15l1.09,-3.4l2.86,-2.1l3.54,0l2.86,2.1l1.09,3.4l-1.09,3.4l-2.86,2.1l-3.54,0l-2.86,-2.1l-1.09,-3.4z" fill="#ffffff" id="svg_12" stroke="#fc0000" stroke-dasharray="null" stroke-linecap="null" stroke-linejoin="bevel" stroke-opacity="null" stroke-width="0" transform="matrix(1, 0, 0, 1, 0, 0)"/>
  <path d="m2.82,-0.27c209.28,134.72 1001.92,176.92 458.53,132.63c-543.39,-44.29 260.82,56.14 260.15,46.57c-0.67,-9.56 -460.27,-185.75 -44.33,-46.13c415.94,139.62 -30.37,-64.94 231.51,-6.04c261.88,58.91 296.28,-52.65 301.09,-66.47c4.81,-13.82 -152.21,112.48 -236.8,34.31c-84.58,-78.17 58.53,-23.94 143.4,-28.22c84.88,-4.28 165.3,-56.71 164.63,-66.27" fill="#0080d6" id="svg_13" stroke="#fc0000" stroke-dasharray="null" stroke-linecap="null" stroke-linejoin="bevel" stroke-opacity="null" stroke-width="0">20284</path>
 </g>
</svg>